<svg aria-hidden="true" style="position:absolute;width:0;height:0;overflow:hidden" xmlns="http://www.w3.org/2000/svg">
  <defs>
    <symbol id="icon-frame" viewBox="0 0 32 32">
      <path d="M8 5.067c0 1.333 2.667 4.267 6.133 6.4L20 15.734l-6.667 5.333C4 28.534 8.533 30.934 18.4 23.734c4.533-3.467 8.267-6.933 8.267-7.733 0-1.867-14.933-13.333-17.333-13.333-.8 0-1.333 1.067-1.333 2.4z"/>
    </symbol>
    <symbol id="icon-close-line" viewBox="0 0 27 32">
      <path d="M14.377 13.333l6.141-6.141c0.108-0.128 0.174-0.295 0.174-0.478 0-0.409-0.332-0.741-0.741-0.741-0.183 0-0.35 0.066-0.48 0.176l0.001-0.001-6.14 6.141-6.141-6.148c-0.132-0.122-0.31-0.198-0.505-0.198-0.411 0-0.744 0.333-0.744 0.744 0 0.195 0.075 0.372 0.197 0.505l-0-0 6.148 6.141-6.147 6.14c-0.162 0.137-0.264 0.34-0.264 0.567 0 0.409 0.332 0.741 0.741 0.741 0.227 0 0.429-0.102 0.565-0.262l0.001-0.001 6.147-6.141 6.141 6.141c0.129 0.111 0.298 0.179 0.483 0.179 0.409 0 0.741-0.332 0.741-0.741 0-0.185-0.068-0.354-0.179-0.484l0.001 0.001-6.141-6.14z"></path>
    </symbol>
  </defs>
</svg>
