<svg aria-hidden="true" style="width:0;height:0;position:absolute;overflow:hidden" xmlns="http://www.w3.org/2000/svg"><defs><symbol id="icon-github" viewBox="0 0 31 32"><path fill="#f8d24e" style="fill:var(--color1,#f8d24e)" d="M31.03 16.43c0 8.571-6.946 15.519-15.515 15.519S0 25.001 0 16.43 6.946.911 15.515.911 31.03 7.859 31.03 16.43z"/><path d="M15.515 7.301c-5.013 0-9.127 4.114-9.127 9.129 0 4.278 3.001 8.165 6.988 9.129v-3.02a2.251 2.251 0 0 1-1.176-.033l.016.004c-.539-.16-.977-.52-1.303-1.067-.207-.351-.574-.73-.958-.702l-.094-1.067c.829-.07 1.547.506 1.972 1.222.189.318.407.504.686.587.271.079.56.042.898-.078.085-.677.395-.931.629-1.287-2.378-.355-3.325-1.616-3.7-2.612-.498-1.322-.232-2.973.65-4.017.017-.019.049-.074.036-.111-.403-1.221.088-2.23.107-2.337.465.138.542-.139 2.025.762l.257.154c.107.064.074.027.18.019a7.557 7.557 0 0 1 1.91-.27h.006a7.78 7.78 0 0 1 1.996.29l-.055-.013.082.008c-.007 0 .023-.005.073-.035 1.853-1.122 1.786-.755 2.284-.917.017.108.504 1.135.104 2.339-.053.166 1.607 1.687.687 4.128-.376.996-1.324 2.257-3.7 2.612.305.465.67.712.669 1.67v3.77c3.985-.963 6.987-4.85 6.987-9.129 0-5.013-4.113-9.129-9.126-9.129z"/></symbol><symbol id="icon-telegram" viewBox="0 0 32 32"><path fill="#f8d24e" style="fill:var(--color1,#f8d24e)" d="M31.258 16.43c0 8.571-6.946 15.519-15.515 15.519S.228 25.001.228 16.43 7.174.911 15.743.911 31.258 7.859 31.258 16.43z"/><path d="m12.705 18.735-.307 4.044c.44 0 .63-.177.86-.39l2.065-1.842 4.281 2.927c.785.407 1.338.194 1.55-.675l2.81-12.291c.25-1.084-.419-1.508-1.183-1.241L6.264 15.169c-1.128.407-1.11.995-.192 1.261l4.223 1.226 9.807-5.729c.462-.285.882-.128.536.158l-7.934 6.65z"/></symbol><symbol id="icon-facebook" viewBox="0 0 31 32"><path fill="#f8d24e" style="fill:var(--color1,#f8d24e)" d="M15.515 31.949c8.569 0 15.515-6.948 15.515-15.519S24.084.912 15.515.912 0 7.859 0 16.43c0 8.571 6.946 15.519 15.515 15.519z"/><path d="M19.826 16.412h-2.531v9.329h-3.836v-9.328h-1.823v-3.28h1.823v-2.122c0-1.517.718-3.892 3.869-3.892l2.841.012v3.183h-2.061c-.339 0-.815.17-.815.894v1.93h2.866l-.335 3.276z"/></symbol></defs></svg>