<svg aria-hidden="true" style="width:0;height:0;position:absolute;overflow:hidden" xmlns="http://www.w3.org/2000/svg"><defs><symbol id="icon-frame" viewBox="0 0 32 32"><path d="M8 5.067c0 1.333 2.667 4.267 6.133 6.4L20 15.734l-6.667 5.333C4 28.534 8.533 30.934 18.4 23.734c4.533-3.467 8.267-6.933 8.267-7.733 0-1.867-14.933-13.333-17.333-13.333-.8 0-1.333 1.067-1.333 2.4z"/></symbol><symbol id="icon-close-line" viewBox="0 0 27 32"><path d="m14.377 13.333 6.141-6.141a.741.741 0 0 0-1.047-1.043l.001-.001-6.14 6.141-6.141-6.148a.743.743 0 0 0-1.052 1.051l6.148 6.141-6.147 6.14a.74.74 0 1 0 1.042 1.046l.001-.001 6.147-6.141 6.141 6.141a.741.741 0 0 0 1.045-1.046l.001.001-6.141-6.14z"/></symbol></defs></svg>