<svg aria-hidden="true" style="position: absolute; width: 0; height: 0; overflow: hidden;" version="1.1" xmlns="http://www.w3.org/2000/svg" xmlns:xlink="http://www.w3.org/1999/xlink">
<defs>
<symbol id="icon-github" viewBox="0 0 31 32">
<path fill="#f8d24e" style="fill: var(--color1, #f8d24e)" d="M31.030 16.43c0 8.571-6.946 15.519-15.515 15.519s-15.515-6.948-15.515-15.519c0-8.571 6.946-15.519 15.515-15.519s15.515 6.948 15.515 15.519z"></path>
<path d="M15.515 7.301c-5.013 0-9.127 4.114-9.127 9.129 0 4.278 3.001 8.165 6.988 9.129v-3.020c-0.158 0.040-0.34 0.063-0.526 0.063-0.226 0-0.444-0.034-0.65-0.096l0.016 0.004c-0.539-0.16-0.977-0.52-1.303-1.067-0.207-0.351-0.574-0.73-0.958-0.702l-0.094-1.067c0.829-0.070 1.547 0.506 1.972 1.222 0.189 0.318 0.407 0.504 0.686 0.587 0.271 0.079 0.56 0.042 0.898-0.078 0.085-0.677 0.395-0.931 0.629-1.287-2.378-0.355-3.325-1.616-3.7-2.612-0.498-1.322-0.232-2.973 0.65-4.017 0.017-0.019 0.049-0.074 0.036-0.111-0.403-1.221 0.088-2.23 0.107-2.337 0.465 0.138 0.542-0.139 2.025 0.762l0.257 0.154c0.107 0.064 0.074 0.027 0.18 0.019 0.572-0.162 1.23-0.259 1.91-0.27l0.006-0c0.695 0.011 1.362 0.111 1.996 0.29l-0.055-0.013 0.082 0.008c-0.007 0 0.023-0.005 0.073-0.035 1.853-1.122 1.786-0.755 2.284-0.917 0.017 0.108 0.504 1.135 0.104 2.339-0.053 0.166 1.607 1.687 0.687 4.128-0.376 0.996-1.324 2.257-3.7 2.612 0.305 0.465 0.67 0.712 0.669 1.67v3.77c3.985-0.963 6.987-4.85 6.987-9.129 0-5.013-4.113-9.129-9.126-9.129z"></path>
</symbol>
<symbol id="icon-telegram" viewBox="0 0 32 32">
<path fill="#f8d24e" style="fill: var(--color1, #f8d24e)" d="M31.258 16.43c0 8.571-6.946 15.519-15.515 15.519s-15.515-6.948-15.515-15.519c0-8.571 6.946-15.519 15.515-15.519s15.515 6.948 15.515 15.519z"></path>
<path d="M12.705 18.735l-0.307 4.044c0.44 0 0.63-0.177 0.86-0.39l2.065-1.842 4.281 2.927c0.785 0.407 1.338 0.194 1.55-0.675l2.81-12.291c0.25-1.084-0.419-1.508-1.183-1.241l-16.517 5.902c-1.128 0.407-1.11 0.995-0.192 1.261l4.223 1.226 9.807-5.729c0.462-0.285 0.882-0.128 0.536 0.158l-7.934 6.65z"></path>
</symbol>
<symbol id="icon-facebook" viewBox="0 0 31 32">
<path fill="#f8d24e" style="fill: var(--color1, #f8d24e)" d="M15.515 31.949c8.569 0 15.515-6.948 15.515-15.519s-6.946-15.518-15.515-15.518-15.515 6.947-15.515 15.518c0 8.571 6.946 15.519 15.515 15.519z"></path>
<path d="M19.826 16.412h-2.531v9.329h-3.836v-9.328h-1.823v-3.28h1.823v-2.122c0-1.517 0.718-3.892 3.869-3.892l2.841 0.012v3.183h-2.061c-0.339 0-0.815 0.17-0.815 0.894v1.93h2.866l-0.335 3.276z"></path>
</symbol>
</defs>
</svg>
